<?xml version="1.0" encoding="UTF-8" standalone="no"?>
<svg
   xmlns:dc="http://purl.org/dc/elements/1.1/"
   xmlns:cc="http://creativecommons.org/ns#"
   xmlns:rdf="http://www.w3.org/1999/02/22-rdf-syntax-ns#"
   xmlns:svg="http://www.w3.org/2000/svg"
   xmlns="http://www.w3.org/2000/svg"
   xmlns:sodipodi="http://sodipodi.sourceforge.net/DTD/sodipodi-0.dtd"
   xmlns:inkscape="http://www.inkscape.org/namespaces/inkscape"
   sodipodi:docname="logo-gris.svg"
   viewBox="0 0 372 350"
   height="350"
   width="372"
   id="svg1441"
   version="1.1"
   inkscape:version="1.0.2-2 (e86c870879, 2021-01-15)">
  <metadata
     id="metadata1447">
    <rdf:RDF>
      <cc:Work
         rdf:about="">
        <dc:format>image/svg+xml</dc:format>
        <dc:type
           rdf:resource="http://purl.org/dc/dcmitype/StillImage" />
        <dc:title></dc:title>
      </cc:Work>
    </rdf:RDF>
  </metadata>
  <defs
     id="defs1445" />
  <sodipodi:namedview
     pagecolor="#ffffff"
     bordercolor="#666666"
     borderopacity="1"
     objecttolerance="10"
     gridtolerance="10"
     guidetolerance="10"
     inkscape:pageopacity="0"
     inkscape:pageshadow="2"
     inkscape:window-width="1920"
     inkscape:window-height="1052"
     id="namedview1443"
     showgrid="false"
     inkscape:zoom="1.2714286"
     inkscape:cx="-15.938665"
     inkscape:cy="155.51753"
     inkscape:window-x="-8"
     inkscape:window-y="-8"
     inkscape:window-maximized="1"
     inkscape:current-layer="g1449" />
  <g
     inkscape:groupmode="layer"
     inkscape:label="Image"
     id="g1449">
    <path
       style="fill:#808080;stroke-width:1;stroke-miterlimit:4;stroke-dasharray:none;fill-opacity:1"
       d="m 194.1276,347.6418 -21.71772,0.4146 -11.12372,-1.46053 -11.12372,-1.46052 -7.4158,-1.634 -7.41582,-1.634 -5.8267,-1.56933 -5.8267,-1.56933 -8.40176,-2.76654 -8.40175,-2.76654 -10.13777,-5.22248 -10.137771,-5.22248 -13.772218,-10.10166 -13.772216,-10.10166 -7.274368,-6.04021 -7.274368,-6.0402 -6.133456,-7.1354 -6.133447,-7.1354 -4.481935,-6.60832 -4.481924,-6.6083 -4.501915,-9.65664 -4.501925,-9.65665 -3.313946,-9.91748 -3.3139443,-9.9175 -1.6806979,-10.2367 -1.6806979,-10.23671 0.00103,-18.03269 0.00103,-18.0327 1.7480553,-10.49626 1.7480439,-10.49625 3.2264699,-10.18831 3.226544,-10.18831 6.644975,-13.91264 6.644914,-13.912637 8.346874,-12.606036 8.346886,-12.606034 12.186208,-12.311633 12.186208,-12.311631 11.653414,-7.669206 11.653414,-7.669205 13.761493,-6.827607 13.76149,-6.827606 14.31264,-4.649656 14.31264,-4.6496547 7.94552,-1.7011272 7.9455,-1.7011263 11.12372,-0.9299708 11.1237,-0.9299697 14.30192,0.9319955 14.30192,0.9319955 11.12372,2.2451736 11.1237,2.2451741 9.22888,3.090126 9.22886,3.090128 8.40141,3.600519 8.40139,3.60052 9.80213,5.979233 9.80212,5.979233 6.24205,4.809252 6.24206,4.809251 6.43404,5.964352 6.43404,5.964353 7.66046,9.059658 7.66047,9.05967 6.68279,10.077096 6.68281,10.077094 5.6596,10.997876 5.65958,10.99788 3.08105,9.68668 3.08105,9.68669 1.68096,8.48598 1.68093,8.48597 1.105,12.04835 1.10499,12.04833 -1.14846,13.35327 -1.14845,13.35327 -1.56543,7.45131 -1.56545,7.4513 -3.65499,10.93664 -3.65499,10.93664 -4.88557,9.77817 -4.88555,9.77816 -5.3779,7.95561 -5.3779,7.95559 -7.63278,9.04125 -7.6328,9.04124 -8.93,8.46109 -8.92998,8.46108 -9.05511,6.09238 -9.05513,6.09239 -9.95586,4.72153 -9.95588,4.72152 -11.50607,3.85451 -11.50607,3.85452 -12.86016,2.6378 -12.86016,2.63781 z m -1.56131,-2.79675 12.7406,0.12249 8.97712,-1.10009 8.97713,-1.10008 11.1237,-2.65032 11.12372,-2.65032 11.01956,-3.76406 11.01955,-3.76407 7.67347,-4.02305 7.67347,-4.02304 5.67321,-3.80699 5.6732,-3.80699 4.7673,-4.39036 4.7673,-4.39033 -2.6485,1.67206 -2.6485,1.67207 -9.39457,6.03788 -9.39456,6.03789 -9.28834,4.0095 -9.28833,4.0095 -11.2389,3.765 -11.23888,3.76499 -13.51366,2.76565 -13.51366,2.76564 -11.12372,0.76401 -11.1237,0.764 -13.54181,-1.36914 -13.54181,-1.36914 -4.46801,-1.15549 -4.46803,-1.15548 -1.84728,-0.5366 -1.84728,-0.53659 0.5861,1.52927 0.58609,1.52929 4.4394,0.71882 4.43939,0.71882 10.0643,1.41139 10.06432,1.41138 z m -46.11175,-5.18125 h 1.41253 l -0.70626,-0.70717 -0.70627,-0.70715 -0.70627,0.70715 -0.70626,0.70717 z m 18.53952,-1.167 2.1188,0.0559 -6.17973,-2.54416 -6.17974,-2.54416 -3.88456,-2.58145 -3.88459,-2.58147 -6.67526,-5.59366 -6.67527,-5.59366 -11.14056,-13.35826 -11.14057,-13.35828 -4.71419,-9.57599 -4.71418,-9.57598 -1.62412,-6.35392 -1.624147,-6.3539 -0.580525,-7.96618 -0.580525,-7.96617 1.683158,-7.91829 1.683149,-7.91828 3.55155,-7.46255 3.55152,-7.46254 6.47183,-8.57912 6.47183,-8.57913 6.14206,-5.13063 6.14203,-5.1306 1.14783,-1.36708 1.14783,-1.36706 4.67888,-2.77799 4.67888,-2.77798 -4.61637,0.64843 -4.61636,0.64843 -5.90797,2.07912 -5.90797,2.07912 -0.59937,0.85917 -0.59938,0.85919 -7.93257,5.23567 -7.93256,5.23565 -6.28852,6.38054 -6.288529,6.38054 -4.018764,6.20979 -4.018764,6.20981 -2.264184,5.98878 -2.264196,5.98879 -0.520832,8.48597 -0.520824,8.48598 1.607366,7.56352 1.607377,7.56352 3.347285,8.05074 3.347284,8.05074 4.298933,6.65974 4.298931,6.65974 6.067007,7.43422 6.06701,7.43419 6.20494,6.21283 6.20495,6.21282 6.19724,4.21381 6.19725,4.21382 6.72036,3.14884 6.72036,3.14883 6.71034,1.98218 6.71035,1.98218 2.1188,0.056 z m -16.95042,-1.04303 1.0594,0.0301 -8.4752,-4.03891 -8.47522,-4.0389 -8.1691,-6.51933 -8.16913,-6.51931 -8.03271,-9.45661 -8.032714,-9.45661 -4.282018,-6.12055 -4.282019,-6.12054 -3.64345,-7.15835 -3.643461,-7.15833 -2.064529,-6.00828 -2.06453,-6.00828 -1.195693,-8.99653 -1.195703,-8.99653 1.309376,-7.0963 1.309378,-7.0963 2.93969,-6.56333 2.93969,-6.56331 3.14922,-4.57453 3.149228,-4.57452 5.687324,-5.89069 5.687311,-5.89069 6.35642,-4.64263 6.3564,-4.64262 0.55829,-0.81475 0.55831,-0.81474 6.89669,-3.23146 6.89669,-3.23146 6.31722,-1.18021 6.31724,-1.18022 9.0049,0.70862 9.00492,0.70861 4.7673,1.16937 4.76731,1.16935 4.65241,1.97502 4.65239,1.97501 0.40837,-0.40889 0.40836,-0.40889 -8.76867,-4.42713 -8.76867,-4.42713 -8.99557,-2.13056 -8.99558,-2.13053 -9.01424,-3.93276 -9.01425,-3.93271 -5.8267,0.10978 -5.82672,0.10976 -7.9455,3.73972 -7.94552,3.73971 -6.330731,5.19257 -6.330752,5.19255 -4.792964,5.96134 -4.792974,5.96133 -5.271116,8.86344 -5.271124,8.86342 -3.547734,9.43615 -3.547744,9.43614 -0.55608,9.12692 -0.55608,9.12693 1.671724,7.85582 1.671736,7.85582 3.109216,6.65268 3.109226,6.6527 4.428678,6.5298 4.42869,6.52981 6.10909,7.07148 6.10909,7.07147 6.975624,7.05316 6.975635,7.05316 6.22416,4.79547 6.22416,4.79547 7.34145,4.04316 7.34146,4.04317 7.94552,2.8771 7.9455,2.87712 1.0594,0.0301 z m 37.60874,-0.17163 7.94552,-0.0523 -9.00492,-0.81145 -9.0049,-0.81146 -3.1782,-1.00518 -3.17822,-1.00518 -7.4158,-3.7459 -7.41581,-3.7459 -6.53203,-4.82072 -6.53203,-4.82073 -7.07339,-8.28874 -7.07339,-8.28876 -4.575,-9.54672 -4.57499,-9.54672 -1.67588,-6.93275 -1.67587,-6.93274 -0.67051,-6.4232 -0.6705,-6.42321 1.32491,-9.45011 1.32491,-9.45011 2.10898,-6.89485 2.10897,-6.89486 3.49472,-6.89485 3.49472,-6.89486 3.79647,-5.30374 3.79648,-5.30373 6.01121,-6.09929 6.01123,-6.09929 h 0.83988 0.83985 l 1.13395,-2.1215 1.13395,-2.12149 h -4.1992 -4.19921 l -1.39993,1.34768 -1.39991,1.34767 -5.54031,4.03056 -5.5403,4.03056 -5.98996,6.55516 -5.98996,6.55517 -4.47333,6.89486 -4.47335,6.89486 -2.9985,7.42522 -2.9985,7.42523 -0.43857,10.60747 -0.43855,10.60747 2.26229,9.52086 2.26229,9.52086 4.19165,7.7809 4.19163,7.7809 7.8328,9.74728 7.83278,9.74729 9.69069,9.35012 9.69069,9.35014 8.12569,3.86376 8.12568,3.86378 6.40678,1.26744 6.4068,1.26746 7.9455,-0.0523 z m -54.58481,-1.93229 1.03374,0.071 -8.16855,-4.66097 -8.16855,-4.66097 -7.16711,-5.33224 -7.16712,-5.33226 -8.549525,-8.83504 -8.549534,-8.83504 -7.621438,-9.54673 -7.62145,-9.54672 -4.200314,-8.48597 -4.200314,-8.48598 -2.031126,-7.96036 -2.031116,-7.96037 -1.186212,-9.76834 -1.186212,-9.76836 1.072199,-13.56331 1.072209,-13.56332 2.494646,-10.62276 2.494648,-10.62274 3.730628,-9.16217 3.730639,-9.16218 5.509967,-7.98056 5.509968,-7.98057 6.54356,-6.62688 6.543575,-6.62689 7.248642,-4.70473 7.24862,-4.70474 5.99388,-2.24219 5.99388,-2.24219 13.77222,-0.0287 13.77222,-0.0288 5.8267,1.47005 5.82672,1.47007 5.06833,2.54286 5.06833,2.54284 4.18065,4.18595 4.18062,4.18594 3.30012,5.85494 3.30013,5.85492 h 0.36427 0.36427 l -1.65408,-4.86061 -1.65407,-4.86061 -3.33829,-4.42092 -3.33828,-4.42094 -6.36981,-4.29253 -6.3698,-4.29252 -8.694,-2.87706 -8.69401,-2.87705 -8.14037,-1.13366 -8.14038,-1.13366 -6.43453,0.73776 -6.43456,0.73776 -6.61231,2.39203 -6.6123,2.39202 -5.948183,3.58234 -5.948194,3.58233 -8.09783,8.59293 -8.09783,8.59294 -3.53892,5.93708 -3.538918,5.93708 -4.002864,9.33679 -4.002874,9.33679 -3.232635,12.72897 -3.232647,12.72896 -1.283156,7.94924 -1.283148,7.94924 0.71714,11.10659 0.717152,11.1066 2.025034,9.05396 2.025046,9.05396 2.017884,5.83886 2.017894,5.83887 3.438266,6.89009 3.438256,6.8901 8.73436,11.66822 8.73435,11.66822 9.254703,10.35521 9.254694,10.35523 4.62349,3.18508 4.62351,3.18508 5.08321,2.24123 5.08323,2.24124 4.23761,1.38463 4.2376,1.38465 1.03375,0.071 z m 55.46177,0.007 1.40664,0.0638 -8.29275,-4.2751 -8.29276,-4.2751 -6.88611,-5.57049 -6.8861,-5.57048 -5.45075,-7.24413 -5.45074,-7.24413 -3.16781,-6.5119 -3.16781,-6.51191 -2.34778,-7.42523 -2.34777,-7.42523 -0.52485,-12.19858 -0.52483,-12.1986 1.66737,-7.9556 1.66736,-7.9556 4.72628,-9.58707 4.72629,-9.58707 6.45591,-7.05445 6.45591,-7.05445 5.34844,-3.93109 5.34843,-3.93111 6.00337,-2.44305 6.00336,-2.44304 -3.9361,-1.6467 -3.93611,-1.6467 h -1.00514 -1.00514 l -0.38641,-1.16065 -0.38639,-1.16066 -7.75805,-0.0486 -7.75804,-0.0486 -0.6839,1.06127 -0.6839,1.06127 -3.44478,1.76726 -3.44478,1.76725 -6.10271,6.07117 -6.1027,6.07116 -4.85428,7.42523 -4.85428,7.42523 -3.32163,8.09518 -3.32166,8.09516 -1.73178,9.93753 -1.73178,9.93752 0.62476,9.01635 0.62473,9.01635 1.99628,7.52322 1.99627,7.52321 3.4023,6.9198 3.40228,6.9198 5.77521,7.3023 5.77521,7.30229 6.06757,5.06219 6.06755,5.06221 9.53462,4.94138 9.53461,4.94139 6.88611,1.866 6.8861,1.866 z m 30.37538,-0.34392 14.83162,-0.42036 8.47522,-2.30351 8.4752,-2.30354 7.38165,-2.64667 7.38165,-2.64668 8.36772,-3.68373 8.3677,-3.68375 10.73567,-7.08177 10.73567,-7.08178 9.94527,-9.59334 9.94527,-9.59335 7.3568,-9.49815 7.35679,-9.49814 5.20053,-8.81586 5.20053,-8.81585 2.772,-5.5528 2.77201,-5.55281 -1.02878,1.06075 -1.02877,1.06075 -5.32513,7.95559 -5.32513,7.95561 -6.32074,6.48679 -6.32071,6.48679 -6.58568,4.47793 -6.58568,4.47794 -7.25428,2.99522 -7.25425,2.9952 -5.75318,1.28915 -5.75317,1.28913 -9.95726,-0.49508 -9.95728,-0.49509 -6.07797,-2.20515 -6.07796,-2.20515 -6.63485,-4.02053 -6.63484,-4.02055 -7.94818,-7.99793 -7.94819,-7.99792 -6.10314,-9.15644 -6.10314,-9.15643 -5.88357,-12.58888 -5.88354,-12.58916 -3.37196,-6.85645 -3.37194,-6.85644 -3.80872,-4.01622 -3.80873,-4.01621 h -3.45323 -3.45323 l -5.45086,2.73522 -5.45087,2.7352 -5.71127,4.40406 -5.71128,4.40408 -4.98238,6.16547 -4.9824,6.16547 -3.7358,7.645 -3.7358,7.64501 -1.91538,6.89485 -1.91539,6.89485 0.051,11.66822 0.051,11.66822 2.22132,8.2518 2.22129,8.2518 4.37508,8.96657 4.37506,8.96657 6.84616,7.40385 6.84614,7.40388 7.24319,4.82138 7.24318,4.82137 4.02369,1.68333 4.02367,1.68333 7.47543,2.02772 7.47541,2.0277 14.83162,-0.42036 z M 107.7864,330.1168 h 0.5297 v -0.53038 -0.53037 h -0.5297 -0.5297 v 0.53037 0.53038 z m -1.5891,-1.19493 0.5297,0.009 -2.01802,-1.26356 -2.01801,-1.26355 -7.516605,-4.95525 -7.516596,-4.95525 -8.169996,-7.55985 -8.169996,-7.55985 -6.459764,-8.58363 -6.459752,-8.58364 -4.239004,-8.44167 -4.239014,-8.44168 -3.582704,-10.76809 -3.582714,-10.76799 -1.783386,-12.19858 -1.783396,-12.19859 0.605088,-10.60747 0.605086,-10.60747 1.723806,-7.9556 1.723815,-7.9556 0.343003,-1.59112 0.343012,-1.59113 3.24964,-11.16331 3.24965,-11.16329 3.260169,-7.93015 3.260169,-7.93014 4.089702,-6.89485 4.089714,-6.89485 6.262492,-6.42001 6.262502,-6.42002 8.19325,-5.48694 8.193261,-5.48695 5.512598,-1.73038 5.5126,-1.73038 11.43431,-0.55571 11.43433,-0.55569 8.16459,1.30969 8.16461,1.30969 8.4752,2.63584 8.47522,2.63584 3.57657,2.06982 3.57657,2.06983 0.39577,-0.39627 0.39578,-0.39628 -3.9937,-3.21352 -3.99372,-3.21351 -4.21624,-2.13128 -4.21625,-2.13129 -7.4158,-1.936959 -7.41581,-1.936954 -13.24251,-0.03226 -13.24252,-0.03227 -7.41581,1.970352 -7.415809,1.970331 -7.287684,3.58548 -7.287686,3.58547 -5.041988,3.70586 -5.041986,3.70586 -6.321574,6.76636 -6.321576,6.76637 -5.06254,8.13283 -5.062528,8.13282 -4.2136,9.75978 -4.213598,9.75978 -2.453616,9.64484 -2.453626,9.64484 -1.115105,10.01306 -1.115105,10.01306 1.04814,14.68516 1.04815,14.68517 2.065696,9.90458 2.065704,9.90458 2.829726,8.25933 2.829724,8.25933 3.185248,6.36447 3.18525,6.36448 4.285416,6.36449 4.285415,6.36448 3.090623,3.88799 3.090624,3.88798 9.16454,7.36003 9.164542,7.36001 7.415811,4.19894 7.415802,4.19893 2.6485,1.18804 2.64852,1.18802 0.5297,0.009 z m -9.669748,-9.42274 0.394562,0.0106 -1.453962,-1.85214 -1.453973,-1.85215 -1.059401,-1.14623 -1.059403,-1.14623 -5.969462,-6.81354 -5.969472,-6.81395 -6.276252,-7.95559 -6.276254,-7.95561 -3.710648,-6.36448 -3.710648,-6.36447 -3.260584,-7.95561 -3.260582,-7.95561 -2.48756,-11.13783 -2.487558,-11.13785 0.0322,-16.44157 0.0322,-16.44158 3.444527,-13.25934 3.444526,-13.25933 2.759423,-7.42524 2.759423,-7.42523 3.155447,-6.36447 3.155437,-6.36448 3.739507,-5.66498 3.739517,-5.66497 5.942245,-6.00324 5.942256,-6.00325 6.081702,-4.0395 6.081702,-4.03952 5.554333,-2.45197 5.55432,-2.45197 5.61401,-1.19894 5.614,-1.19893 5.5097,1.9e-4 5.50971,1.7e-4 7.94551,1.56202 7.94551,1.56203 4.2376,1.21068 4.2376,1.21067 5.91096,2.98521 5.91094,2.98521 4.94792,3.78163 4.94792,3.78162 v -0.93902 -0.93901 l -4.81162,-5.35847 -4.8116,-5.35845 -8.24812,-3.18486 -8.24813,-3.18485 -10.67836,-2.17887 -10.67836,-2.17888 h -9.0512 -9.0512 l -5.61401,1.19892 -5.614,1.19893 -5.826697,2.57138 -5.826705,2.57137 -7.641102,5.85843 -7.64109,5.85843 -5.184901,7.07804 -5.184901,7.07803 -2.680751,4.77336 -2.680741,4.77336 -3.2049,8.48597 -3.204901,8.48598 -2.661576,9.01634 -2.661577,9.01635 -2.335418,11.56307 -2.335408,11.56305 0.555074,16.01637 0.555084,16.01635 3.19151,12.36268 3.191499,12.36267 4.184349,8.9405 4.184338,8.9405 5.470547,8.11729 5.470537,8.11729 6.476469,6.93216 6.47648,6.93216 7.008893,5.2715 7.008891,5.27149 0.394572,0.0106 z m -41.413201,-25.92291 0.504254,-0.50491 -3.247542,-5.07888 -3.247542,-5.07888 -3.852312,-9.01634 -3.852322,-9.01635 -2.541069,-8.76626 -2.541059,-8.76626 -1.787136,-9.79681 -1.787124,-9.79681 -0.09682,-18.56308 -0.09684,-18.56306 1.92969,-8.96606 1.929688,-8.96605 2.16173,-6.41479 2.16173,-6.41477 4.467102,-9.57022 4.467114,-9.57024 5.001338,-7.60119 5.00135,-7.60121 8.794376,-8.28649 8.794376,-8.2865 5.732334,-3.42374 5.732346,-3.42374 7.846642,-2.744938 7.846645,-2.744941 9.09133,-1.418984 9.09131,-1.419007 -6.8861,-0.09537 -6.8861,-0.09525 -8.72984,2.095575 -8.729811,2.095553 -7.161204,3.615792 -7.161192,3.61579 -6.845004,5.05141 -6.844992,5.0514 -5.685976,5.93658 -5.685976,5.93657 -5.722653,8.57249 -5.722642,8.57247 -3.649934,8.01943 -3.649923,8.01941 -2.262966,7.60828 -2.262966,7.60826 -1.616286,12.3956 -1.616286,12.3956 1.204094,13.67145 1.204084,13.67144 2.042134,10.19536 2.042132,10.19536 2.579251,8.62511 2.579251,8.62513 3.195958,7.28607 3.19596,7.2861 2.809246,5.02846 2.809246,5.02845 2.725288,2.14644 2.7253,2.14644 z m 270.155849,-8.86578 5.26505,-5.62834 5.84722,-8.16137 5.84722,-8.16137 3.91217,-7.16004 3.91216,-7.16004 h -0.60539 -0.60538 l -2.29225,4.50818 -2.29224,4.50817 -5.31845,7.95561 -5.31846,7.95559 -6.80833,8.48598 -6.80836,8.48597 z m -41.6232,-2.87371 8.47522,-0.51578 6.3564,-1.98093 6.35641,-1.98095 3.17821,-1.42056 3.1782,-1.42057 5.8267,-3.59581 5.82672,-3.59581 6.75744,-6.52646 6.75747,-6.52647 6.19755,-9.48101 6.19755,-9.48101 -0.41876,-0.4193 -0.41876,-0.4193 -8.34231,8.3092 -8.3423,8.30918 -8.10709,4.59371 -8.10711,4.59373 -7.52111,2.6189 -7.52114,2.61891 -9.22404,0.83721 -9.22405,0.83719 -8.4752,-0.98614 -8.47522,-0.98615 -7.47483,-2.89238 -7.47482,-2.89238 -6.13241,-4.07563 -6.13241,-4.07563 -5.72684,-5.24065 -5.72683,-5.24067 v 0.72563 0.72564 l 6.28546,7.6016 6.28549,7.60159 5.10308,3.85142 5.10309,3.85142 4.70938,2.37513 4.70939,2.37514 3.76582,1.47495 3.76583,1.47493 -4.2376,-0.63092 -4.2376,-0.63094 -6.33938,-3.35795 -6.33939,-3.35795 -7.00871,-6.60772 -7.0087,-6.6077 -2.64642,-3.99977 -2.64644,-3.99975 -7.20218,-10.87265 -7.2022,-10.87266 h -0.38828 -0.3883 l 3.73514,7.42641 3.73512,7.42639 3.55838,5.56775 3.55839,5.56775 4.4861,5.83411 4.4861,5.83411 4.38956,4.07009 4.38959,4.07009 6.14737,4.22818 6.14738,4.22817 3.89674,1.63023 3.89675,1.63024 6.3766,1.45918 6.3766,1.45919 z m -242.511725,-0.78237 0.338892,-0.33932 -3.026604,-6.36253 -3.026603,-6.36252 -3.248739,-10.57091 -3.24875,-10.57092 -2.15729,-12.15922 -2.15729,-12.15924 -0.65133,-13.29869 -0.651332,-13.2987 1.738414,-11.5728 1.738404,-11.57278 3.12392,-9.33612 3.12392,-9.33611 3.64486,-7.2009 3.64487,-7.20088 5.46883,-7.7579 5.468831,-7.75791 6.546337,-6.63997 6.546326,-6.63998 6.700342,-4.52368 6.700344,-4.52367 6.125764,-3.04317 6.125766,-3.043169 7.810923,-2.167268 7.81092,-2.167264 5.3183,-0.105756 5.3183,-0.105758 2.6485,-0.938326 2.64851,-0.938326 -9.53461,0.457819 -9.53462,0.457807 -9.298132,3.180459 -9.298145,3.180456 -7.652278,3.877296 -7.652278,3.87729 -5.667002,4.24981 -5.667002,4.24982 -6.354958,6.51582 -6.354944,6.51582 -4.49413,5.97864 -4.494128,5.97864 -4.928536,9.55468 -4.928536,9.55466 -3.690838,11.04393 -3.690836,11.04393 -2.053852,10.5489 -2.05386,10.54891 -1.22667,8.25046 -1.226671,8.25046 1.120911,7.23361 1.12091,7.23362 2.25253,7.32199 2.25253,7.32197 3.517986,7.42523 3.517996,7.42522 4.131432,6.38994 4.131422,6.38995 3.497041,3.98797 3.497041,3.98797 z m 248.316425,-17.37474 8.98291,-0.5781 7.96751,-2.53061 7.96752,-2.53062 6.82064,-4.00495 6.82065,-4.00494 6.6918,-6.22568 6.69181,-6.22568 4.91581,-6.50328 4.9158,-6.50329 3.00037,-6.36448 3.00038,-6.36447 2.1118,-8.26818 2.11182,-8.26816 1.11004,-10.92652 1.11004,-10.92652 -1.06671,-7.53075 -1.06669,-7.53074 -2.76814,-8.25663 -2.76813,-8.25662 -3.65047,-6.91744 -3.65047,-6.91746 0.62103,2.65188 0.62102,2.65186 1.5411,6.89486 1.54109,6.89485 1.21893,15.41658 1.21892,15.41658 -1.15328,10.99011 -1.1533,10.99013 -1.12842,1.12987 -1.12844,1.12986 0.80472,-5.26088 0.80472,-5.26088 -0.0473,-15.38083 -0.0473,-15.38083 -1.34958,-10.60747 -1.34956,-10.60747 -3.60593,-10.6866 -3.60593,-10.6866 -2.76835,-4.95941 -2.76835,-4.95942 h -0.33436 -0.33437 l 2.97915,9.93535 2.97915,9.93536 2.20097,10.48403 2.20095,10.48401 1.82316,16.07338 1.82316,16.07337 -1.36549,10.95524 -1.36548,10.95525 -1.03968,1.61155 -1.03969,1.61155 0.58012,-3.18224 0.58015,-3.18224 0.67325,-12.19859 0.67326,-12.1986 -1.2286,-10.07709 -1.22858,-10.07709 -2.65833,-12.9909 -2.65831,-12.99089 -3.51859,-11.97276 -3.51859,-11.97277 -2.27216,-4.73726 -2.27216,-4.737252 0.61828,2.121498 0.61826,2.121484 2.58722,8.91746 2.58723,8.91746 2.06467,10.17599 2.0647,10.17598 1.09884,11.66822 1.09885,11.66822 -0.005,15.38083 -0.005,15.38083 -1.52963,10.16006 -1.52965,10.16008 -2.31632,6.2815 -2.31632,6.28151 -4.29244,7.42523 -4.29244,7.42523 -5.50249,5.51285 -5.50247,5.51286 -5.02593,3.19139 -5.02594,3.1914 -7.01741,2.06564 -7.01743,2.06563 -4.7673,1.11712 -4.7673,1.11713 8.98288,-0.57808 z m 55.11088,-51.30574 -1.02695,1.59112 0.0582,-1.06074 0.0582,-1.06074 0.91049,-2.1215 0.91049,-2.1215 0.0582,1.59112 0.0582,1.59113 z m -74.1581,50.74838 h 2.64852 l -1.32426,-0.53504 -1.32426,-0.53503 -1.32424,0.53503 -1.32426,0.53504 z m -4.7673,-0.89327 h 0.5297 v -0.53038 -0.53037 h -0.5297 -0.5297 v 0.53037 0.53038 z m -4.7673,-1.06075 h 1.41253 l -0.70626,-0.70716 -0.70627,-0.70716 -0.70627,0.70716 -0.70626,0.70716 z m 15.36132,-1.19165 2.1188,0.11863 6.16009,-1.01018 6.1601,-1.01015 5.95553,-2.91747 5.95554,-2.91748 6.74468,-6.31733 6.74469,-6.31733 4.28214,-7.21707 4.28213,-7.21707 1.99523,-6.41879 1.9952,-6.41879 0.6538,-8.20063 0.65379,-8.20062 -1.65131,-10.08971 -1.65134,-10.08972 -2.70944,-9.5341 -2.70943,-9.53411 -3.46308,-6.89485 -3.46307,-6.89486 -4.36765,-8.48597 -4.36766,-8.48597 -2.20846,-6.58742 -2.20844,-6.58742 -2.1194,-16.749018 -2.11941,-16.749013 -2.0911,-7.31664 -2.09112,-7.316639 -4.5325,-8.037004 -4.53251,-8.037001 -7.4158,-7.452417 -7.41582,-7.452417 -6.07967,-3.569694 -6.07968,-3.569694 -9.2288,-3.185073 -9.2288,-3.185075 -10.65921,-0.544708 -10.65919,-0.544707 -8.99256,2.273282 -8.99257,2.273283 -7.86537,3.735803 -7.86534,3.735801 -6.05429,3.682448 -6.05427,3.682449 -15.50946,11.628127 -15.50949,11.628126 -6.59052,3.660267 -6.59054,3.660265 -6.68325,2.171413 -6.68324,2.171424 -15.508613,3.314494 -15.508634,3.314484 -9.060465,2.592805 -9.060477,2.592795 -8.9721,4.269538 -8.972102,4.269549 -4.800116,3.913588 -4.800114,3.913599 -2.5286,2.12311 -2.528612,2.12309 -6.169285,7.78086 -6.169297,7.78089 -3.220368,8.36129 -3.220368,8.3613 v 1.346 1.34599 l 3.598606,-5.35042 3.598618,-5.35041 8.179848,-8.70628 8.17985,-8.70627 8.973658,-5.97846 8.973658,-5.97845 9.52566,-4.111946 9.52565,-4.11195 9.139644,-2.651931 9.139646,-2.651931 10.372633,-1.180983 10.37264,-1.180982 9.88995,1.124848 9.88993,1.124859 8.37638,2.815423 8.37635,2.815424 6.36658,3.868644 6.36658,3.868625 6.8861,6.9354 6.88612,6.9354 4.09822,8.41604 4.09825,8.41603 3.45701,12.25905 3.45701,12.25905 3.38904,12.72896 3.38902,12.72896 0.34285,1.59112 0.34285,1.59113 2.36884,6.89484 2.36883,6.89486 3.70137,7.42523 3.70138,7.42523 3.70079,5.8341 3.70078,5.83411 5.26418,6.52742 5.26418,6.52742 6.51914,5.26883 6.51914,5.26884 5.8267,3.23844 5.8267,3.23843 5.37647,1.73347 5.37648,1.73344 5.21753,0.87461 5.21756,0.8746 z m -21.18803,-0.92955 h 0.52971 v -0.53038 -0.53037 h -0.52971 -0.5297 v 0.53037 0.53038 z m 53.32864,-6.33054 2.47738,-1.26979 4.24082,-3.83617 4.24079,-3.83618 4.54134,-6.41856 4.54131,-6.41856 2.21413,-4.3997 2.21411,-4.3997 2.10935,-7.62148 2.10932,-7.62147 1.23528,-13.15501 1.23528,-13.15501 -1.93594,-2.9336 -1.93594,-2.93362 -0.7379,-5.8341 -0.73791,-5.83411 -3.32107,-21.21493 -3.32105,-21.21494 -1.59189,-7.42523 -1.59188,-7.42524 -2.22676,-6.894844 -2.22676,-6.894858 -4.55769,-9.233346 -4.55771,-9.233357 -3.82147,-5.981487 -3.82145,-5.981488 -4.97377,-5.324123 -4.97377,-5.324119 -6.36459,-4.83484 -6.36457,-4.834841 1.5891,2.023599 1.5891,2.023597 1.82196,2.035714 1.82197,2.035713 4.21662,8.115179 4.21663,8.115171 2.11174,7.895584 2.11176,7.895574 1.21845,10.60747 1.21844,10.607472 1.50008,7.85233 1.50011,7.85234 4.36692,9.96995 4.36693,9.96996 1.94423,2.3319 1.94422,2.33189 0.0353,-5.42996 0.0353,-5.42998 -1.59555,-9.42049 -1.59554,-9.42047 -2.21056,-9.01635 -2.21056,-9.016355 -2.61865,-8.863746 -2.61866,-8.863739 -3.45248,-7.047465 -3.45248,-7.047454 -3.95704,-6.364481 -3.95703,-6.364481 4.56452,4.863283 4.56451,4.863277 4.43617,8.92643 4.43619,8.926429 3.20772,11.45595 3.20773,11.455952 2.71224,13.40995 2.71223,13.40996 1.00106,12.26807 1.00105,12.26807 2.18986,6.35665 2.18988,6.35664 2.01492,7.95561 2.01493,7.95559 1.01162,9.3834 1.01162,9.38338 -0.89234,7.0582 -0.89234,7.05818 -2.13543,6.89486 -2.13542,6.89486 -3.80661,6.36447 -3.8066,6.36448 -6.56103,6.75117 -6.56104,6.75117 2.47737,-1.2698 z m 42.01747,-5.33768 h 0.5297 v -0.53037 -0.53038 h -0.5297 -0.5297 v 0.53038 0.53037 z M 57.309419,222.98164 h 0.871506 l 0.131164,-3.49349 0.131176,-3.49349 3.678898,-10.5614 3.678908,-10.56141 4.68283,-10.07709 4.682828,-10.07711 9.658668,-14.46633 9.658665,-14.46634 6.928708,-7.07547 6.92871,-7.07546 6.68712,-3.13327 6.68714,-3.13325 8.6615,-1.26403 8.6615,-1.26402 8.44833,1.23291 8.44833,1.23293 5.74007,2.71894 5.74009,2.71893 4.08626,4.5715 4.08626,4.5715 1.92981,2.40092 1.9298,2.40093 0.60099,-0.60175 0.60099,-0.60175 -3.5902,-5.98357 -3.59019,-5.98359 -4.18965,-3.61505 -4.18965,-3.61506 -8.52317,-2.78676 -8.52317,-2.78675 -13.77222,-0.0119 -13.77222,-0.0119 -6.21619,2.27665 -6.21619,2.27665 -5.36701,3.30655 -5.367002,3.30655 -4.655221,3.86768 -4.655235,3.8677 -7.229407,9.54672 -7.229408,9.54672 -3.804628,7.64977 -3.804616,7.64977 -2.539322,8.79181 -2.539332,8.79181 -1.617324,10.07709 -1.617314,10.0771 -0.601538,6.62967 -0.60155,6.62967 h 0.871506 z m -47.3099364,-14.85046 0.8503484,-4.77336 2.257224,-11.66822 2.257214,-11.66821 3.646734,-11.0447 3.646724,-11.04471 5.127852,-10.17022 5.127842,-10.17025 3.802138,-5.30373 3.802148,-5.30374 7.667364,-7.82714 7.667374,-7.82715 4.576264,-3.75467 4.576276,-3.75467 8.677894,-4.563597 8.677884,-4.563611 -0.852616,-0.03097 -0.852628,-0.03098 -7.31524,3.116864 -7.31525,3.116884 -8.821846,5.87762 -8.821846,5.87764 -8.373276,8.43962 -8.373284,8.43962 -4.094904,6.16749 -4.094914,6.16751 -4.106886,8.48597 -4.106896,8.48597 -2.800972,8.75694 -2.8009838,8.75692 -0.9568187,6.6239 -0.95683,6.62391 -0.021297,8.08819 -0.021297,8.0882 0.7380845,3.58001 0.7380844,3.58002 z m 61.1509184,-13.60956 6.443056,-10.95769 v -0.43553 -0.43554 l 8.025114,-12.16792 8.025111,-12.16793 6.062803,-5.60938 6.062815,-5.60939 5.8262,-4.00619 5.82619,-4.0062 7.89517,-3.24673 7.89516,-3.24674 7.99823,-0.5745 7.99824,-0.57451 5.82458,1.69541 5.8246,1.69541 6.59145,4.43167 6.59146,4.43169 0.61617,-0.61696 0.61616,-0.61695 -4.91295,-5.25902 -4.91297,-5.25903 -4.99377,-2.14976 -4.99376,-2.14977 -8.54327,-1.17015 -8.54325,-1.17016 -6.81807,0.97673 -6.81805,0.97674 -5.69699,2.17858 -5.69699,2.1786 -4.17009,2.89355 -4.1701,2.89355 -6.30935,7.85295 -6.309365,7.85295 -4.071338,6.01077 -4.071354,6.01076 -4.200176,6.89486 -4.200177,6.89486 -4.820075,10.60747 -4.820084,10.60747 -0.746688,2.65186 -0.746698,2.65187 z m 119.670029,-9.24416 0.47758,-0.47819 -4.58841,-9.28379 -4.58839,-9.2838 -6.63681,-6.65496 -6.63678,-6.65498 -6.16438,-2.82842 -6.16438,-2.82841 -8.56882,-0.45255 -8.56882,-0.45254 -7.78368,1.77261 -7.78368,1.7726 -1.65732,1.01786 -1.65734,1.01786 3.17822,-0.6479 3.1782,-0.64789 3.7079,-0.95189 3.7079,-0.95188 5.97996,-0.006 5.97997,-0.006 7.21931,2.23264 7.21929,2.23265 5.9821,4.06752 5.9821,4.06753 6.35721,6.94658 6.35721,6.94657 2.49713,5.26639 2.49715,5.2664 0.47758,-0.47819 z m 2.95404,-1.89703 0.70626,-0.70717 -0.70626,-0.70717 -0.70627,-0.70716 v 1.41433 1.41433 z m -0.89974,-2.84126 0.33625,0.0127 -0.70087,-2.38668 -0.70086,-2.38669 -3.73279,-7.42522 -3.7328,-7.42523 -1.83653,-2.12149 -1.83654,-2.1215 -0.74232,-1.31378 -0.74235,-1.31378 1.38196,0.53097 1.38193,0.53097 3.03869,4.80923 3.03869,4.80924 0.56339,-0.56409 0.56336,-0.56409 -3.11307,-5.05345 -3.11307,-5.05345 -5.78867,-3.48082 -5.78866,-3.4808 -5.29701,-1.60091 -5.297,-1.60093 -8.17846,-1.1783 -8.17843,-1.17829 -7.54371,1.24739 -7.54371,1.2474 -3.77458,1.57912 -3.77458,1.57912 0.49768,0.4983 0.49767,0.49833 3.63774,-1.08912 3.63774,-1.0891 11.2249,-0.63414 11.22492,-0.63414 6.03882,1.90184 6.03882,1.90186 5.47989,3.83328 5.47988,3.83328 5.14308,6.34853 5.14305,6.34855 3.36566,6.0867 3.36566,6.08671 0.33623,0.0127 z m -10.59326,-4.27759 0.337,0.0472 -2.07777,-2.91704 -2.07778,-2.91706 -6.23551,-5.95087 -6.2355,-5.95085 -3.14743,-1.62831 -3.14742,-1.62831 -6.79624,-2.23275 -6.79621,-2.23273 h -6.71115 -6.71114 v 0.99671 0.99672 l 3.97276,0.43956 3.97276,0.43957 -8.47522,0.0311 -8.4752,0.0311 -4.50246,1.22525 -4.50246,1.22525 v 0.33378 0.33377 l 5.28544,-0.5085 5.28543,-0.50851 9.81103,1.80486 9.81104,1.80486 6.93855,1.47554 6.93856,1.47554 5.77426,2.58223 5.77425,2.58222 5.82672,4.30113 5.8267,4.30112 0.33699,0.0472 z m -39.00513,-21.33523 h -2.6485 l 1.32424,-0.53503 1.32426,-0.53503 1.32424,0.53503 1.32426,0.53503 z m -49.437641,12.88753 8.211421,-6.88593 8.61716,-6.57646 8.61717,-6.57643 0.89848,0.55598 0.89848,0.556 -0.29109,-1.30055 -0.29112,-1.30055 3.48179,-2.41132 3.48178,-2.41133 5.31043,-1.14033 5.31042,-1.14033 h 8.27847 8.27847 l 5.61307,1.06586 5.61308,1.06584 0.46089,-0.46147 0.46089,-0.46149 -4.07542,-2.05148 -4.07541,-2.05149 -5.68485,-1.34008 -5.68486,-1.3401 -6.51628,0.52373 -6.51631,0.52372 -6.63373,2.68289 -6.63373,2.68288 -5.89171,3.55841 -5.89173,3.55839 -6.28885,5.68325 -6.288837,5.68325 -4.575382,6.51533 -4.575384,6.51534 -0.91437,1.5822 -0.914368,1.58219 z m 76.514901,4.25191 h 0.46717 v -0.46776 -0.46779 l -1.22309,-0.75686 -1.22309,-0.75688 0.75592,1.22464 0.7559,1.22465 z M 12.260701,159.3299 l 4.697692,-11.14477 3.41606,-5.82718 3.41606,-5.82718 4.615198,-6.50006 4.615196,-6.50006 7.16597,-6.57464 7.165972,-6.57465 5.055992,-3.28033 5.055992,-3.28034 v -0.45297 -0.45299 l -6.091557,3.43004 -6.091557,3.43006 -2.648504,2.01967 -2.648502,2.01966 -8.285874,8.17607 -8.285874,8.17606 -4.645072,6.96714 -4.645072,6.96713 -2.635632,7.35296 -2.6356319,7.35293 -0.6442744,5.83411 -0.6442857,5.83411 z m 152.795879,10.61439 h 0.46718 v -1.06074 -1.06075 h -1.12192 -1.12192 l 0.65474,1.06075 0.65475,1.06074 z m 2.05628,0 h 0.5297 v -0.53037 -0.53037 h -0.5297 -0.5297 v 0.53037 0.53037 z m -5.8267,-2.31846 1.5891,-0.0122 -7.4158,-2.42211 -7.41582,-2.42214 -3.7079,-0.77944 -3.7079,-0.77943 0.6614,0.69776 0.6614,0.69775 8.87321,2.51601 8.87321,2.51603 1.5891,-0.0123 z m 176.6681,-6.69788 0.39252,-7.42524 -1.1661,-10.03647 -1.1661,-10.03649 -2.6232,-11.70883 -2.6232,-11.70882 -2.18289,-6.89486 -2.18288,-6.894856 -3.83137,-8.992692 -3.83137,-8.992684 -2.93122,-4.266653 -2.93123,-4.266642 -2.73432,-3.182241 -2.7343,-3.182241 3.92291,6.326231 3.92292,6.326231 3.952,9.123399 3.95203,9.12341 2.62245,8.417168 2.62245,8.41717 2.32885,14.85046 2.32884,14.85046 2.04286,12.36939 2.04285,12.36937 0.2075,1.42034 0.2075,1.42032 z m -218.51446,-7.9556 h 0.5297 v -0.53037 -0.53038 h -0.5297 -0.5297 v 0.53038 0.53037 z m 242.98026,-3.18225 h 0.38814 l -0.74102,-3.9778 -0.74105,-3.97779 -3.20836,-10.07711 -3.20835,-10.07709 -3.75137,-7.94105 -3.75137,-7.94105 -5.32484,-9.030902 -5.32484,-9.030897 -3.71865,-5.303735 -3.71862,-5.303735 -7.11832,-8.485975 -7.11834,-8.485975 -3.27006,-3.115509 -3.27007,-3.115512 v 0.817952 0.817951 l 5.56186,5.828904 5.56184,5.828899 4.47692,6.432327 4.47689,6.432317 14.17648,28.22323 14.17648,28.22322 2.52926,6.62966 2.52925,6.62967 z m -329.611277,-49.673 1.717852,-2.469769 12.26365,-10.82468 12.26365,-10.824689 7.41581,-5.914491 7.415808,-5.914503 7.415809,-4.44507 7.415809,-4.445075 14.831609,-7.237383 14.83162,-7.237381 10.06432,-4.284659 10.06431,-4.284656 11.12371,-3.705013 11.12372,-3.705012 13.417,-4.340067 13.41701,-4.340067 5.65221,-1.028082 5.65222,-1.028081 -11.65342,0.465997 -11.6534,0.465996 -16.42072,3.644585 -16.42072,3.644585 -9.88986,3.276001 -9.88984,3.276002 -9.70908,4.708075 -9.70908,4.708075 -11.653405,7.034882 -11.653414,7.034879 -9.591968,7.291062 -9.591968,7.291054 -11.65586,12.035362 -11.655862,12.035362 -3.38325,4.923633 -3.383252,4.923638 0.05552,0.86963 0.05552,0.86963 1.71785,-2.46977 z M 328.14186,95.692009 h 0.5297 v -0.530374 -0.53037 h -0.5297 -0.5297 v 0.53037 0.530374 z m -191.22194,-2.12149 h 1.41254 l -0.70626,-0.707169 -0.70628,-0.707157 -0.70627,0.707157 -0.70626,0.707169 z m -3.7079,-1.325797 2.1188,0.05357 -2.6485,-0.849278 -2.6485,-0.849276 -4.2376,0.05357 -4.23761,0.05356 4.76731,0.74212 4.7673,0.742109 2.1188,0.05356 z m -81.437687,-4.323827 3.314422,-1.696877 7.220572,-2.72126 7.220572,-2.721273 8.004528,-2.042648 8.00454,-2.042649 13.242515,-2.750622 13.242518,-2.750613 6.8861,-2.243691 6.88612,-2.243682 4.7673,-2.64075 4.7673,-2.640741 4.97827,-3.286416 4.97828,-3.286417 11.97214,-9.060516 11.97215,-9.060515 8.08419,-4.990987 8.08416,-4.990984 6.9232,-3.243877 6.92322,-3.243876 6.71034,-2.072236 6.71035,-2.072238 -8.63241,0.555188 -8.63243,0.555187 -8.14957,2.086959 -8.14959,2.08696 -12.88124,6.676106 -12.88124,6.676106 -15.36131,9.968659 -15.36131,9.96866 -6.54053,2.971662 -6.54052,2.971661 -14.647502,5.382315 -14.647507,5.382304 -13.85503,6.822629 -13.85503,6.822628 -2.03599,2.286356 -2.035988,2.286355 z m 2.281622,-16.752599 11.42274,-11.011305 12.67864,-8.572852 12.678638,-8.572852 9.688587,-5.498234 9.68859,-5.498233 6.73213,-3.043277 6.73214,-3.043277 10.37416,-3.315388 10.37416,-3.315387 12.40296,-2.683612 12.40296,-2.683612 9.53462,-1.644275 9.53461,-1.644275 16.95042,0.434773 16.95043,0.434775 -5.29702,-0.980989 -5.297,-0.9809882 -21.18802,-0.1540755 -21.18804,-0.1540745 -11.08234,2.4836442 -11.08236,2.483644 -11.69478,4.165829 -11.69476,4.16583 -12.71282,6.431582 -12.712818,6.431584 -12.040657,7.925905 -12.040646,7.925904 -6.788812,5.145783 -6.788804,5.14579 -3.947668,3.583139 -3.947668,3.583128 -5.032156,5.913506 -5.032156,5.913505 v 0.819852 0.81985 z m 8.176184,6.316303 1.059402,-0.465732 7.945508,-3.794079 7.94551,-3.79409 14.83162,-5.535964 14.831621,-5.535964 8.4752,-4.105343 8.47522,-4.105343 14.96663,-9.846003 14.96665,-9.846004 1.98377,-1.280025 1.98379,-1.280024 -3.7079,1.141016 -3.70792,1.141018 -9.84171,3.619631 -9.84173,3.619632 -14.52451,6.418821 -14.52451,6.418818 -10.064301,5.381571 -10.064314,5.38157 -8.492278,5.601465 -8.492276,5.601475 -2.631437,2.864643 -2.631437,2.864643 z m 243.132601,-25.402266 0.5297,0.03205 -4.35922,-3.934296 -4.35919,-3.934296 -5.17541,-3.515879 -5.17542,-3.515878 3.67136,2.985505 3.67136,2.985505 5.33356,4.432624 5.33355,4.432623 0.52971,0.03204 z M 285.7658,37.350931 h 0.5297 v -0.530373 -0.530373 h -0.5297 -0.5297 v 0.530373 0.530373 z m -3.1782,-2.121493 h 0.5297 v -0.530374 -0.530373 h -0.5297 -0.5297 v 0.530373 0.530374 z m -2.1188,-1.060747 h 0.5297 v -0.530374 -0.530373 h -0.5297 -0.5297 v 0.530373 0.530374 z m -3.1782,-2.121494 h 0.5297 V 31.516824 30.98645 h -0.5297 -0.5297 v 0.530374 0.530373 z m -2.1188,-1.060747 h 0.5297 v -0.530373 -0.530374 h -0.5297 -0.5297 v 0.530374 0.530373 z M 224.85024,12.786265 h 2.6485 l -1.32426,-0.535025 -1.32424,-0.535027 -1.32426,0.535027 -1.32424,0.535025 z"
       id="path2680" />
  </g>
</svg>
